<?xml version="1.0" encoding="UTF-8"?>
<svg version="1.1" xmlns="http://www.w3.org/2000/svg" width="652" height="656">
<path d="M0 0 C215.16 0 430.32 0 652 0 C652 216.48 652 432.96 652 656 C436.84 656 221.68 656 0 656 C0 439.52 0 223.04 0 0 Z " fill="#FCFDFC" transform="translate(0,0)"/>
<path d="M0 0 C0.83122177 -0.00367669 1.66244354 -0.00735338 2.51885384 -0.01114148 C5.2976657 -0.02213254 8.07644009 -0.02601468 10.85527039 -0.02983093 C12.85184852 -0.03610004 14.8484255 -0.04274724 16.84500122 -0.04974365 C23.4066029 -0.07076876 29.96820472 -0.08115849 36.52983093 -0.09111023 C38.80062052 -0.09516119 41.07140998 -0.09927821 43.34219933 -0.10346031 C54.0353804 -0.12252448 64.72855461 -0.1367416 75.42174941 -0.14507228 C87.68692127 -0.15478871 99.95190996 -0.18095505 112.21701747 -0.22157317 C121.73944522 -0.25200213 131.26182137 -0.26656699 140.78429669 -0.26985329 C146.44881304 -0.27217748 152.11313413 -0.28078394 157.77759743 -0.30631447 C231.50711903 -0.62128664 299.72603013 14.33532485 355.15873718 65.88935852 C357.26287359 67.83215539 359.40987914 69.68333174 361.60404968 71.52217102 C370.9492222 79.68730138 378.74152797 89.48614111 386.22465515 99.3351593 C387.14255687 100.54094099 388.06605898 101.7424803 388.99516296 102.93965149 C396.11182235 112.11528133 401.97681552 121.6366575 407.40434265 131.89619446 C408.57363459 134.09010405 409.7732254 136.26441024 410.98295593 138.43623352 C416.46300349 148.36558788 420.78070995 158.47803356 424.60404968 169.14717102 C424.86814636 169.8645343 425.13224304 170.58189758 425.40434265 171.32099915 C430.05360862 184.00656592 433.07949479 196.88750974 435.60404968 210.14717102 C435.85396667 211.36509338 435.85396667 211.36509338 436.1089325 212.60762024 C448.4745639 274.16695919 432.7664565 343.17966845 398.3745575 394.99971008 C395.56376855 399.13453443 392.61376778 403.15564866 389.60404968 407.14717102 C389.18043152 407.71500305 388.75681335 408.28283508 388.32035828 408.86787415 C381.04837556 418.57114405 373.00979087 427.41895895 364.60404968 436.14717102 C363.47483093 437.33826477 363.47483093 437.33826477 362.32279968 438.55342102 C357.1425027 443.9035638 351.40778813 448.49471764 345.60404968 453.14717102 C343.66576029 454.75038379 341.72824331 456.35453092 339.79154968 457.95967102 C336.17619635 460.9223961 332.57271254 463.68016438 328.60404968 466.14717102 C330.24515986 471.45166261 333.61554039 475.46742023 336.91654968 479.83467102 C338.1933544 481.54503916 339.46937831 483.25599043 340.74467468 484.96748352 C341.71437195 486.26540833 341.71437195 486.26540833 342.70365906 487.58955383 C345.56185485 491.43622125 348.36727 495.32001914 351.16654968 499.20967102 C351.69877136 499.94798157 352.23099304 500.68629211 352.77934265 501.44697571 C354.92376418 504.42256335 357.06608908 507.39965791 359.20854187 510.37666321 C365.87639262 519.63869297 372.59082007 528.86301995 379.37333679 538.04145813 C383.31812331 543.38553153 387.22334562 548.75641948 391.10404968 554.14717102 C401.11277078 568.0362989 411.29445807 581.77829771 421.7039032 595.36982727 C426.55479194 601.72239164 431.27663879 608.15598098 435.92558289 614.65742493 C440.14934692 620.5559582 444.49064086 626.35909788 448.91166687 632.11128235 C450.93714005 634.77413492 452.53803332 636.94912193 453.60404968 640.14717102 C433.10536767 640.24103398 412.60672988 640.31135425 392.10787678 640.35441971 C382.58772872 640.37495625 373.06771498 640.40290423 363.5476532 640.44892883 C355.24016141 640.48907179 346.932767 640.51466836 338.6251809 640.523525 C334.23524063 640.52869379 329.84557868 640.54065106 325.45572853 640.57009125 C285.86786542 640.82505153 253.49679072 635.28280834 224.04154968 606.89717102 C218.86229998 601.60803625 214.36433411 595.91396836 209.96684265 589.97627258 C207.44368665 586.5897651 204.86193577 583.24787334 202.29154968 579.89717102 C201.18188566 578.445569 200.07251305 576.99374417 198.96342468 575.54170227 C196.74714599 572.64136311 194.52832632 569.74299864 192.30717468 566.84638977 C186.99258989 559.91228817 181.70510689 552.96079143 176.47904968 545.95967102 C171.41135261 539.17707189 166.2196915 532.50166876 160.9629364 525.86494446 C158.66892873 522.96508136 156.38713407 520.05563607 154.10404968 517.14717102 C151.3907895 513.69279772 148.67679601 510.23901037 145.95951843 506.78779602 C126.24521301 481.74099196 126.24521301 481.74099196 117.04545593 469.38154602 C111.67481002 462.2206848 106.11515257 455.20006354 100.60404968 448.14717102 C96.7153317 451.53131262 94.74619736 455.27522699 92.54154968 459.83467102 C92.19011902 460.55654602 91.83868835 461.27842102 91.47660828 462.02217102 C81.72615614 482.33751944 83.25170437 504.4620647 83.08836365 526.51496887 C83.05680944 530.67556493 83.01742692 534.83595148 82.96810913 538.99637604 C82.94844348 540.91256547 82.93993708 542.82885935 82.93180847 544.74513245 C82.80871844 555.6530162 81.61094548 565.87718164 77.47904968 576.02217102 C77.17193054 576.78682678 76.8648114 577.55148254 76.54838562 578.33930969 C65.91104823 604.09272213 47.48717772 622.48366011 22.01029968 633.83076477 C-1.04746956 642.74185219 -25.70282057 642.77509061 -48.64595032 633.83467102 C-73.85842471 622.61017295 -93.01587361 602.92386513 -103.1464386 577.24482727 C-109.36931352 560.51585453 -109.6941171 543.30635878 -109.6230011 525.67427063 C-109.62243546 523.68164068 -109.62275651 521.68901032 -109.62388611 519.69638062 C-109.62445468 514.34214868 -109.61278162 508.98800827 -109.59873819 503.63379741 C-109.58614723 498.01778182 -109.58505379 492.40176361 -109.58268738 486.78573608 C-109.57649701 476.17565843 -109.5601196 465.5656225 -109.5399884 454.95556313 C-109.51755291 442.86592472 -109.50661681 430.77628421 -109.49659753 418.68663013 C-109.47575094 393.84012072 -109.44062299 368.99364822 -109.39595032 344.14717102 C-108.84885753 344.21852611 -108.30176474 344.28988119 -107.73809338 344.36339855 C-89.90388193 346.64645973 -72.04281589 348.07321726 -54.08345032 348.83467102 C-53.39965805 348.86463716 -52.71586578 348.8946033 -52.01135254 348.9254775 C-15.41316671 350.47592871 13.31916251 347.39429776 41.08402443 321.94174385 C47.95403085 315.53064463 54.33229044 308.7029343 60.60404968 301.70967102 C61.04757168 301.2162054 61.49109368 300.72273978 61.94805574 300.21432066 C80.63084175 280.52900665 80.63084175 280.52900665 95.60404968 258.14717102 C96.26404968 258.14717102 96.92404968 258.14717102 97.60404968 258.14717102 C102.35690635 291.98561567 102.35690635 291.98561567 95.39183044 301.70960999 C90.82630782 307.212344 85.32165473 311.74525802 79.5476532 315.93598938 C72.81823306 320.99100789 67.76041357 326.00788184 62.9569397 332.95297241 C51.87167328 348.71608694 37.21239934 368.18286494 17.37486267 372.44129944 C-10.09193284 377.11780068 -38.84105153 373.24688192 -66.39595032 371.14717102 C-66.33533497 394.01793635 -66.25777798 416.88858892 -66.1602354 439.75922775 C-66.11533323 450.37925471 -66.07590573 460.99924856 -66.04951477 471.61933899 C-66.02648948 480.87938096 -65.99304096 490.13931763 -65.94724876 499.39927602 C-65.92337758 504.29911039 -65.90460886 509.19884087 -65.89833641 514.09873199 C-65.89225786 518.71821719 -65.87215865 523.33743678 -65.8416748 527.95682335 C-65.83293878 529.64494922 -65.82916272 531.33310986 -65.83094215 533.0212574 C-65.84403342 551.18458477 -62.43024691 568.26010678 -49.72798157 581.94404602 C-40.01388564 591.30603186 -27.26113877 596.10258934 -13.95845032 596.39717102 C0.70908226 596.10790414 14.0121485 591.59617978 24.60404968 581.14717102 C41.2418696 562.40403821 39.9407716 538.84115307 39.98490906 515.33979797 C40.10150512 478.27099629 50.67420168 447.5712311 76.01567078 420.20332336 C76.52791388 419.64967794 77.04015697 419.09603252 77.56792259 418.52560997 C87.65553411 407.67349769 98.08409953 397.14197333 108.49634743 386.602808 C112.25941316 382.7932276 116.01076564 378.97344495 119.73783875 375.12861633 C123.37795762 371.37403655 127.04428992 367.64703511 130.73070908 363.93792343 C132.12212593 362.52875738 133.50400779 361.11010743 134.87579727 359.68182755 C136.78973458 357.69267411 138.73549019 355.74087894 140.69242859 353.79414368 C141.52191765 352.90768913 141.52191765 352.90768913 142.36816406 352.00332642 C144.93342126 349.51628625 146.51307056 348.2070748 150.16013718 348.00682068 C152.69451334 348.24431876 155.11539458 348.61892026 157.60404968 349.14717102 C158.53088562 349.32860657 159.45772156 349.51004211 160.41264343 349.69697571 C161.49738953 349.91982239 161.49738953 349.91982239 162.60404968 350.14717102 C174.65813402 350.932686 187.08198069 351.06200527 198.60404968 347.14717102 C199.82221375 346.74498352 201.04037781 346.34279602 202.29545593 345.92842102 C220.7933011 339.40734522 235.6435835 325.49659302 244.60404968 308.14717102 C246.56033983 303.88725984 248.17419179 299.61006082 249.60404968 295.14717102 C249.92373718 294.16748352 250.24342468 293.18779602 250.57279968 292.17842102 C256.52131352 270.80783429 251.73244697 250.1567785 241.63871765 230.97822571 C239.3889852 226.99686813 236.61799129 223.56297151 233.60404968 220.14717102 C232.65658875 218.9154718 232.65658875 218.9154718 231.68998718 217.65888977 C221.10826929 204.91723321 203.75976749 196.87952113 187.60404968 194.14717102 C171.81110545 193.03230855 158.63188054 193.44923122 144.44389343 200.77998352 C136.65862957 204.69626449 131.19057391 205.71041792 122.62358093 205.26045227 C118.70576132 205.62972711 116.80716098 207.45333461 113.97158813 210.0899353 C113.08995436 210.90848558 112.20832058 211.72703587 111.29997063 212.5703907 C107.04241967 216.63978804 102.85583388 220.77270131 98.7039032 224.94966125 C97.76172042 225.89376957 96.819305 226.83764577 95.87667847 227.78131104 C93.86954567 229.79157184 91.86396817 231.80336617 89.85963631 233.8164196 C86.68935097 237.00036151 83.5151342 240.18036511 80.34036255 243.35983276 C73.61276537 250.09846218 66.88945095 256.84135714 60.16654968 263.58467102 C52.88208634 270.89119429 45.59686154 278.19694945 38.30677551 285.49786335 C35.15086504 288.65875169 31.99740695 291.82206029 28.84581482 294.98725402 C27.36097071 296.4777562 25.87499111 297.96711488 24.38848877 299.45596313 C22.57658386 301.27074174 20.76648484 303.08732581 18.95851135 304.90602112 C18.16108017 305.7035228 17.36364899 306.50102448 16.54205322 307.32269287 C15.84986978 308.01709693 15.15768633 308.71150099 14.44452763 309.42694759 C10.88934765 312.74983657 8.79917488 313.394754 4.04464722 313.37181091 C2.30973778 313.37121422 2.30973778 313.37121422 0.53977966 313.37060547 C-0.73041016 313.3601973 -2.00059998 313.34978912 -3.3092804 313.33906555 C-4.65957405 313.33526731 -6.00987079 313.33245854 -7.36016846 313.33056641 C-10.2690824 313.32511969 -13.17790531 313.31412518 -16.08678627 313.29930496 C-20.68838916 313.27738657 -25.28983529 313.27691819 -29.89147949 313.28117371 C-31.46717928 313.28236709 -33.04287909 313.28353609 -34.61857891 313.28468132 C-35.40769488 313.28526157 -36.19681084 313.28584182 -37.00983942 313.28643966 C-47.72274408 313.29246519 -58.43537027 313.28009512 -69.14814758 313.22627258 C-76.37456214 313.19013819 -83.6004113 313.18239205 -90.82688254 313.20677078 C-94.65046809 313.21845757 -98.47278852 313.21537823 -102.29622841 313.17726517 C-105.89437405 313.14151136 -109.4906018 313.14291084 -113.08878517 313.17249489 C-115.03432122 313.17871704 -116.97985818 313.14527083 -118.9250946 313.11056519 C-125.17938729 313.04506702 -125.17938729 313.04506702 -130.46248436 315.92173386 C-131.96476783 317.93183394 -133.16437284 319.96628864 -134.39595032 322.14717102 C-136.81001282 324.17060852 -136.81001282 324.17060852 -139.02095032 325.52217102 C-140.12309875 326.21439758 -140.12309875 326.21439758 -141.24751282 326.92060852 C-145.38796861 329.28443237 -148.60319684 330.61464286 -153.39595032 331.14717102 C-154.09462219 331.2477179 -154.79329407 331.34826477 -155.51313782 331.45185852 C-163.86266931 332.13624635 -170.56712904 328.53120798 -177.39595032 324.14717102 C-184.11127497 318.31603078 -188.02355894 311.26489255 -188.66938782 302.38935852 C-189.03074077 291.39768166 -187.80536756 283.77769042 -180.20845032 275.33467102 C-173.20708473 268.82570916 -164.7818452 265.81209985 -155.37251282 265.93623352 C-146.05885104 266.5962568 -138.70077106 270.20766516 -132.56782532 277.24482727 C-128.39595032 282.61562896 -128.39595032 282.61562896 -128.39595032 285.14717102 C-109.35512657 288.28320308 -90.2805219 290.24151084 -71.02095032 291.27217102 C-70.30464604 291.31152991 -69.58834177 291.35088881 -68.85033131 291.39144039 C-31.71237231 293.35821093 -1.20232807 289.56999625 27.44578171 264.28331375 C38.83117545 254.03400601 49.43735764 243.11078102 59.72904968 231.77217102 C60.29446189 231.14998845 60.8598741 230.52780588 61.44242001 229.88676929 C71.61135253 218.67137322 81.61160411 207.30606942 91.12571716 195.52766418 C91.78532047 194.71156453 91.78532047 194.71156453 92.45824909 193.87897801 C93.10622723 193.07725073 93.10622723 193.07725073 93.76729584 192.25932693 C111.59384622 170.21769109 132.0256821 156.2120205 160.60404968 152.14717102 C165.96605064 151.71107176 171.29194687 151.61065621 176.66654968 151.64717102 C177.38060974 151.64926575 178.0946698 151.65136047 178.83036804 151.65351868 C211.98991811 151.85280813 239.06270117 165.22962217 262.60404968 188.14717102 C285.91473576 212.82706039 295.37510962 244.61762224 294.91654968 277.84638977 C293.92869811 309.63463016 279.04132979 339.06603821 256.60404968 361.14717102 C234.24469754 381.85583274 205.67064205 393.63717638 175.22904968 393.33467102 C174.00444031 393.33402649 172.77983093 393.33338196 171.51811218 393.3327179 C164.41849067 393.29887436 157.46934241 392.94914705 150.41581726 392.12129211 C145.35697337 392.16785263 142.13102924 394.74132006 138.60404968 398.14717102 C133.43235411 403.58029297 130.00859472 409.76286916 129.43998718 417.33076477 C129.97251422 428.8210597 138.50050859 437.85970641 145.60404968 446.14717102 C146.41769118 447.22964729 147.23043097 448.3128031 148.04154968 449.39717102 C158.06604058 460.15516125 171.7658929 464.92047499 186.17436218 465.55342102 C243.25810296 466.73886612 293.81665859 442.70227952 335.32279968 404.65498352 C342.16176347 398.05408492 347.8930094 390.71402323 353.60404968 383.14717102 C354.32721375 382.20744446 355.05037781 381.2677179 355.79545593 380.29951477 C364.64755786 368.53713276 371.28383039 355.39486633 377.60404968 342.14717102 C378.12869812 341.05275696 378.65334656 339.9583429 379.19389343 338.83076477 C387.67976051 320.12584291 392.0623665 300.44997033 394.60404968 280.14717102 C394.75982483 278.91172546 394.75982483 278.91172546 394.91874695 277.65132141 C401.05571397 223.54037086 384.18183954 168.28356053 351.60404968 125.14717102 C350.95694031 124.27447571 350.30983093 123.4017804 349.64311218 122.50263977 C337.57093773 106.97104773 322.78008147 93.28548274 306.60404968 82.14717102 C305.86219421 81.63605774 305.12033875 81.12494446 304.35600281 80.5983429 C293.0591866 72.92956112 281.28942226 66.71761108 268.83500671 61.14570618 C266.99878693 60.32384812 265.17293722 59.4788604 263.35014343 58.62763977 C236.21802091 46.47028757 206.00675332 43.83878703 176.66142273 43.85664368 C174.65327714 43.85063952 172.64513382 43.84382975 170.63699341 43.83628845 C165.24890001 43.8188267 159.86087035 43.81394196 154.47275138 43.81265688 C151.09552413 43.81122494 147.71831257 43.80693616 144.34108925 43.80166245 C132.52956251 43.78323761 120.71808055 43.77498352 108.90653992 43.77656555 C97.93981238 43.77776935 86.97328086 43.75660076 76.00660294 43.72507823 C66.54531238 43.6988626 57.08408574 43.68820026 47.62275916 43.68947637 C41.99145398 43.68998384 36.36032399 43.684418 30.7290554 43.66312027 C25.43709236 43.64364481 20.14547028 43.64367667 14.85349464 43.65815353 C12.92309186 43.66023023 10.99266714 43.65560952 9.06230164 43.64343262 C-12.89978985 43.51396337 -31.46972472 48.39502325 -47.58345032 64.30732727 C-58.14159192 75.64533161 -65.44443944 90.809255 -65.5541687 106.53189087 C-65.56395752 107.5989476 -65.57374634 108.66600433 -65.58383179 109.76539612 C-65.58958725 110.92561279 -65.59534271 112.08582947 -65.60127258 113.28120422 C-65.61117218 114.51088425 -65.62107178 115.74056427 -65.63127136 117.00750732 C-65.65741003 120.3707351 -65.67929222 123.73393977 -65.69927335 127.09720635 C-65.72118357 130.61528557 -65.74854756 134.13332229 -65.77532959 137.65136719 C-65.82518852 144.30937924 -65.87015249 150.96741497 -65.91335195 157.6254732 C-65.96278254 165.20709324 -66.01767903 172.78867063 -66.07303154 180.37024939 C-66.18674717 195.96251716 -66.29360878 211.5548242 -66.39595032 227.14717102 C-35.64357577 230.26728606 -35.64357577 230.26728606 -8.30836487 218.78569031 C-3.17239685 214.1413487 1.43997309 209.08529417 5.9407196 203.83302307 C8.02462085 201.46461523 10.22186632 199.21927061 12.42983818 196.96703243 C14.58528325 194.75644138 16.69278884 192.5047364 18.78612137 190.23536873 C19.76659688 189.17257359 20.75441327 188.11649296 21.75025558 187.06808281 C27.53133418 180.87661423 30.35222521 176.09253825 30.11625671 167.67671204 C29.97052719 165.70384972 29.97052719 165.70384972 29.82185364 163.69113159 C29.31833659 155.49823821 33.31324732 148.22645149 38.60404968 142.14717102 C48.00971765 134.38376254 56.79170804 133.22506135 68.60404968 134.14717102 C76.68244916 136.0526692 82.75986462 141.68802703 87.91654968 147.95967102 C92.61624788 156.83687873 93.97630423 165.47335119 91.47904968 175.20967102 C88.40448934 184.43335206 82.11855115 190.55810056 73.72514343 195.18232727 C69.86701199 196.80561154 66.56358082 197.21698386 62.41654968 196.93623352 C53.41684146 196.11841211 53.41684146 196.11841211 45.27592468 199.33857727 C42.9397218 201.56784404 40.95180269 204.03508322 38.97257996 206.58625793 C37.40293333 208.37655955 35.68021719 209.75965805 33.82475281 211.25068665 C30.08133426 214.48321543 27.66150172 217.83793703 25.10137939 222.03825378 C16.27121523 236.2182919 4.01173126 251.72105062 -13.0266037 255.7727356 C-29.0581781 258.6398216 -45.62031804 258.16641537 -61.83345032 257.70967102 C-62.96957512 257.67793163 -64.10569992 257.64619225 -65.27625275 257.61349106 C-76.83734847 257.26408519 -88.38361193 256.71606427 -99.9210968 255.89546204 C-100.77110449 255.83631843 -101.62111217 255.77717482 -102.49687767 255.71623898 C-108.27268413 255.27043721 -108.27268413 255.27043721 -109.39595032 254.14717102 C-109.49698856 252.20220105 -109.52672391 250.25351384 -109.52966309 248.30592346 C-109.53606056 246.40099373 -109.53606056 246.40099373 -109.54258728 244.45758057 C-109.54223769 243.03672787 -109.54177612 241.61587521 -109.54121399 240.19502258 C-109.54420414 238.70859696 -109.54760633 237.22217211 -109.5513916 235.73574829 C-109.56025878 231.68340685 -109.56257108 227.63108651 -109.56320739 223.57873631 C-109.56391732 221.0440378 -109.56605073 218.50934469 -109.56870461 215.97464752 C-109.57797283 207.1221584 -109.58203838 198.26968436 -109.58125305 189.41719055 C-109.58065453 181.1848372 -109.59115802 172.95254985 -109.60699672 164.72021317 C-109.62012219 157.64403676 -109.62543473 150.56788174 -109.62479764 143.49169326 C-109.62454376 139.2697962 -109.62733265 135.04795756 -109.63797569 130.82607269 C-109.64773901 126.84357828 -109.64768013 122.86119702 -109.64045906 118.87869835 C-109.63942278 117.42640452 -109.64171837 115.97410336 -109.64781952 114.52182198 C-109.76359755 85.02080867 -100.54931766 57.21077377 -79.97407532 35.73310852 C-78.69790344 34.45306946 -78.69790344 34.45306946 -77.39595032 33.14717102 C-76.53485657 32.27963196 -75.67376282 31.4120929 -74.78657532 30.51826477 C-57.79955374 13.67002605 -37.50883924 5.67582124 -14.39595032 1.14717102 C-13.53054532 0.97568952 -12.66514032 0.80420801 -11.77351093 0.6275301 C-7.83451134 0.06732277 -3.96878126 -0.00095108 0 0 Z " fill="#4371AB" transform="translate(189.3959503173828,2.8528289794921875)"/>
<path d="M0 0 C90.09 0 180.18 0 273 0 C272.67 0.66 272.34 1.32 272 2 C270.50354195 2.00879936 270.50354195 2.00879936 268.97685242 2.01777649 C259.49070763 2.07544519 250.00478245 2.14842859 240.51886272 2.23571491 C235.64418435 2.28009659 230.7695834 2.31941973 225.89477539 2.34643555 C221.17427689 2.37279479 216.45408177 2.41341609 211.73377419 2.46318626 C209.94926595 2.47963788 208.16470552 2.4912851 206.38013268 2.49761391 C175.09803277 2.61957381 144.79196597 9.05789878 120 29 C119.25363281 29.75796875 118.50726563 30.5159375 117.73828125 31.296875 C116 33 116 33 114 33 C113.731875 33.60199219 113.46375 34.20398437 113.1875 34.82421875 C111.97843581 37.03951071 110.88414961 38.1683983 109 39.8125 C96.20619621 52.31311245 88.58397054 70.03004844 84 87 C83.78601563 87.74894531 83.57203125 88.49789062 83.3515625 89.26953125 C80.68116128 99.08035312 80.8599071 108.98535023 80.88647461 119.06665039 C80.88675712 120.57534788 80.88659751 122.08404551 80.8860321 123.59274292 C80.88574661 127.66440637 80.89160323 131.73604002 80.89860606 135.80769658 C80.9048809 140.07178294 80.90544666 144.33587007 80.90663147 148.59996033 C80.90973264 156.6638829 80.91792961 164.72779183 80.92798096 172.79170841 C80.93917987 181.97674653 80.94466205 191.16178532 80.94967639 200.34682858 C80.96011329 219.23122677 80.97768913 238.11561229 81 257 C139.89676839 265.25863694 139.89676839 265.25863694 193.72082901 248.4756012 C204.63739767 239.28419093 213.58722305 227.8834242 221.42431641 216.01733398 C224.25687618 211.79874358 227.31116807 208.61254367 231.26977539 205.43994141 C233.24941731 203.87919082 233.24941731 203.87919082 235.4609375 201.06640625 C239.14878139 198.06506868 242.04605194 198.60116343 246.625 198.9375 C256.24538652 199.27160845 263.61053199 197.95716661 271.375 191.875 C277.28568003 186.24346913 280.42553625 178.95453774 281.203125 170.89453125 C281.42123976 161.20660053 278.74251398 153.06070003 272 146 C264.07064364 138.87782363 256.440529 137.34489086 245.99609375 137.6171875 C239.19748867 138.06283999 234.34652477 141.07063519 229.1875 145.3125 C222.67802133 153.3098595 219.57666649 160.09095977 220.47119141 170.64257812 C220.7620335 179.04612645 217.60894467 184.07765665 211.96100998 190.13667297 C211.46598606 190.65875839 210.97096214 191.18084381 210.4609375 191.71875 C209.95569172 192.26673752 209.45044594 192.81472504 208.92988968 193.37931824 C206.24139724 196.29485427 203.51165417 199.1626952 200.73730469 201.99658203 C198.49601929 204.29862346 196.34984054 206.64931992 194.25976562 209.08935547 C184.69191741 220.2269501 175.39216403 229.88369877 160.13892937 231.34012604 C147.72980354 232.05612353 135.347869 231.27261575 123 230 C122.90619233 213.83074008 122.8358436 197.66156963 122.79275131 181.49210262 C122.77220314 173.98284192 122.74423257 166.47375116 122.69824219 158.96459961 C122.65813518 152.41289172 122.63251104 145.86130703 122.62364602 139.30947977 C122.6184712 135.84637689 122.60647468 132.38362615 122.57707977 128.92063713 C122.38361951 105.18927162 124.13213967 85.27851769 141 67 C153.48923188 54.36744907 169.3706493 45.87417555 187.43684101 45.72785109 C188.19510779 45.73163042 188.95337458 45.73540974 189.73461914 45.73930359 C190.56588161 45.73547804 191.39714407 45.73165249 192.25359631 45.72771102 C195.01418231 45.71746679 197.77455696 45.72135695 200.53515625 45.7253418 C202.5254536 45.72099011 204.51574927 45.71580543 206.50604248 45.70985413 C211.89959706 45.69649 217.29308142 45.69588347 222.68664932 45.69841743 C227.2080475 45.69949067 231.72943167 45.69459383 236.25082684 45.689812 C246.94001507 45.67872192 257.62916817 45.67827411 268.31835938 45.68432617 C279.286331 45.69034172 290.25417354 45.67811559 301.22212315 45.6567561 C310.67910094 45.63902714 320.13603812 45.63315709 329.59303188 45.63639385 C335.22254885 45.63819179 340.85197413 45.63572322 346.48147583 45.62167931 C391.70199964 45.5184326 391.70199964 45.5184326 412 49 C412.73891479 49.11986959 413.47782959 49.23973919 414.23913574 49.3632412 C464.29384726 57.4994962 514.24337181 89.12228404 543.96875 130.06176758 C579.18512464 180.33213332 592.67966121 238.98190569 582.59863281 299.67431641 C579.09926946 319.1149068 572.24871656 337.6658499 563.00732422 355.08691406 C562.0040133 356.99237804 561.03258934 358.91142248 560.06640625 360.8359375 C555.48994277 369.83982033 550.11594665 377.97076917 544 386 C543.33097656 386.88300781 542.66195312 387.76601563 541.97265625 388.67578125 C536.68584111 395.45458103 530.88916897 401.74664411 525 408 C524.07380859 408.99 524.07380859 408.99 523.12890625 410 C518.15925509 415.14841559 512.59785636 419.55806463 507 424 C505.98679687 424.81855469 504.97359375 425.63710938 503.9296875 426.48046875 C470.41379865 453.24843648 426.25100317 469.53113131 383.3125 469.5625 C381.4262793 469.56636719 381.4262793 469.56636719 379.50195312 469.5703125 C362.90678303 469.26744842 349.1776719 464.41899905 337 453 C330.7825051 446.28306699 325.59196441 438.90562521 321 431 C320.43925781 430.06220703 320.43925781 430.06220703 319.8671875 429.10546875 C317.25299402 424.07726778 317.72518258 419.33033033 319 414 C321.8759812 405.51328762 327.2434565 399.64896088 334.76977539 394.87817383 C337.69529022 393.72622234 339.74913856 394.01369478 342.8671875 394.35546875 C379.2844759 397.78578827 411.17578666 391.4150422 440 368 C463.85188753 348.13364638 479.87830492 319.12138874 483 288 C484.36103054 254.64119565 478.36493837 221.52556708 455 196 C454.45214844 195.32453125 453.90429688 194.6490625 453.33984375 193.953125 C436.65157312 173.59580197 409.04202452 158.88729245 383 156 C377.35127108 155.64378012 371.72146906 155.51660083 366.0625 155.5 C365.37470459 155.49532715 364.68690918 155.4906543 363.97827148 155.48583984 C338.73503357 155.41946585 317.02187286 163.28685049 298 180 C297.27774294 180.61623954 296.55548588 181.23247908 295.81134224 181.86739254 C289.73692787 187.15682615 284.71780415 192.74360652 279.80810547 199.10961914 C268.9568229 212.8369364 257.62454815 226.09613741 245.875 239.0625 C245.34881592 239.64403399 244.82263185 240.22556797 244.2805028 240.8247242 C216.90910425 270.9692477 191.73295008 292.84910505 149.75811768 295.11270332 C139.54799708 295.56380126 129.38869063 295.2585825 119.1875 294.75 C117.73869836 294.68344231 116.28989413 294.61694067 114.84108734 294.55049515 C100.46177393 293.86013728 86.1121488 292.6553613 71.86010742 290.59277344 C70.84010588 290.46984956 69.82010433 290.34692568 68.76919365 290.22027683 C64.7010147 289.54786672 61.97003086 289.06388534 59.13036537 285.94947052 C57.55561829 283.54888916 57.55561829 283.54888916 56.29691029 281.20718765 C53.17976057 275.90216814 47.86450302 273.06831641 42.1875 271.125 C32.88620419 268.74626126 24.41684364 269.18649007 16 274 C9.39373807 278.57275546 3.9746303 284.05308102 2 292 C1.45797886 298.32849928 1.70728616 304.66437157 2 311 C1.34 310.67 0.68 310.34 0 310 C0 207.7 0 105.4 0 0 Z " fill="#FCFDFB" transform="translate(0,0)"/>
<path d="M0 0 C0.80026515 -0.00226556 1.6005303 -0.00453111 2.42504591 -0.00686532 C5.1039709 -0.01319028 7.7828451 -0.01237691 10.46177673 -0.0115509 C12.38390671 -0.01454344 14.30603609 -0.01794619 16.22816467 -0.02172852 C21.44958539 -0.03056574 26.67098972 -0.03290659 31.89241719 -0.0335443 C35.15747132 -0.03425527 38.42252129 -0.03639053 41.68757439 -0.03904152 C53.08708333 -0.04829588 64.48658057 -0.05237652 75.88609314 -0.05158997 C86.49634744 -0.05099 97.10655076 -0.06152571 107.71679217 -0.07733363 C116.83632809 -0.09043421 125.95584741 -0.09577277 135.07539266 -0.09513456 C140.5173013 -0.0948802 145.95916469 -0.09769683 151.40106392 -0.10831261 C156.52529939 -0.11803531 161.64944677 -0.11804426 166.77368546 -0.11079597 C168.64727979 -0.10975512 170.52087972 -0.11208314 172.39446449 -0.11815643 C182.12684042 -0.14764285 191.44559816 0.01707097 201.00059509 2.13371277 C201.90229463 2.33301801 202.80399416 2.53232325 203.73301792 2.73766804 C234.85742365 9.87570881 262.82951564 24.42595216 287.00059509 45.13371277 C287.84364197 45.85300964 288.68668884 46.57230652 289.55528259 47.31340027 C322.86674241 76.47389936 344.65509052 121.27239152 348.8065033 165.20158386 C349.21273898 171.33855318 349.19775463 177.48595256 349.18809509 183.63371277 C349.18749084 184.34269714 349.1868866 185.05168152 349.18626404 185.78215027 C349.07836732 232.43563694 331.98173944 275.02379255 300.00059509 309.13371277 C299.5355658 309.63274109 299.0705365 310.13176941 298.59141541 310.6459198 C269.65571311 341.45058385 226.36135192 362.06216511 184.00059509 364.13371277 C173.66834928 364.35324013 163.33362468 364.26181632 153.00059509 364.13371277 C153.00059509 363.47371277 153.00059509 362.81371277 153.00059509 362.13371277 C153.89552673 361.84762146 154.79045837 361.56153015 155.71250916 361.26676941 C181.38733342 353.05117953 181.38733342 353.05117953 206.00059509 342.13371277 C206.83864685 341.70590515 207.67669861 341.27809753 208.54014587 340.83732605 C224.96998555 332.3361774 239.07103902 322.22387767 253.00059509 310.13371277 C254.2918665 309.07073244 255.58345033 308.00813129 256.87559509 306.94621277 C260.65467255 303.68456401 263.79465387 299.94723156 267.00059509 296.13371277 C267.76372009 295.27004089 268.52684509 294.40636902 269.31309509 293.51652527 C298.64437702 259.69389079 309.36276894 217.20320929 307.00059509 173.13371277 C304.60154921 143.13380957 292.1565755 115.17507525 273.00059509 92.13371277 C272.51864685 91.55395691 272.03669861 90.97420105 271.54014587 90.37687683 C249.98292996 64.89950347 219.54486361 49.1781362 187.00059509 43.13371277 C186.25302948 42.95721034 185.50546387 42.78070791 184.73524475 42.59885693 C181.32089792 42.01810119 177.97509341 41.99225551 174.52354431 42 C173.40761807 41.99660167 173.40761807 41.99660167 172.26914787 41.99313468 C169.78117691 41.9868144 167.29326069 41.98762277 164.80528259 41.9884491 C163.01957631 41.98545644 161.23387068 41.98205366 159.44816589 41.97827148 C154.60116994 41.9694397 149.75419164 41.96709376 144.90718842 41.9664557 C140.86129253 41.96550591 136.81540076 41.96182693 132.76950645 41.9582836 C123.22609117 41.95014271 113.68268532 41.94769909 104.13926697 41.94841003 C94.29117779 41.94901124 84.44314331 41.93845007 74.59506798 41.92266637 C66.14060394 41.90959858 57.6861578 41.90422579 49.23168373 41.90486544 C44.18179526 41.90512059 39.13195544 41.9022601 34.08207703 41.89168739 C29.33459713 41.88201885 24.58721253 41.88191868 19.83972931 41.88920403 C18.09703686 41.89025131 16.35433851 41.88787849 14.61165619 41.88184357 C12.23354014 41.87414114 9.85575467 41.8787567 7.47764587 41.88647461 C6.78746809 41.88133105 6.09729031 41.87618748 5.38619804 41.87088805 C1.49897966 41.89878309 -1.53977064 42.31515488 -4.99940491 44.13371277 C-6.30006412 46.06754564 -6.30006412 46.06754564 -6.99940491 48.13371277 C-7.49440491 49.12371277 -7.49440491 49.12371277 -7.99940491 50.13371277 C-8.01084884 53.06617479 -7.96593396 55.98055369 -7.89393616 58.91105652 C-7.86986419 61.67317702 -7.8563941 64.43524268 -7.84291077 67.19743347 C-7.82241061 69.09749124 -7.78237227 70.99744901 -7.72181702 72.89665222 C-7.22275559 89.546098 -7.22275559 89.546098 -11.41908264 94.57414246 C-14.34774719 97.45868804 -17.65793071 99.75193487 -20.99940491 102.13371277 C-22.67878784 103.70935004 -24.32625124 105.3200071 -25.93299866 106.96965027 C-26.68387756 107.72375183 -27.43475647 108.47785339 -28.20838928 109.25480652 C-28.94379944 109.99859558 -29.67920959 110.74238464 -30.43690491 111.50871277 C-31.19938538 112.27570496 -31.96186584 113.04269714 -32.74745178 113.83293152 C-34.20047534 115.29479188 -35.65245322 116.75769267 -37.10316467 118.22184753 C-38.68646244 119.81819166 -40.27440502 121.40953035 -41.86659241 122.99699402 C-43.49349883 124.62688012 -45.09592783 126.28123675 -46.68690491 127.94621277 C-48.99940491 130.13371277 -48.99940491 130.13371277 -50.99940491 130.13371277 C-51.09248995 119.14529795 -51.16336412 108.15697845 -51.20665359 97.16824818 C-51.22744075 92.06455268 -51.25559449 86.9611289 -51.30116272 81.85758972 C-51.34493919 76.92328953 -51.36860856 71.98924907 -51.37891388 67.05476952 C-51.38624859 65.1814891 -51.40056997 63.30822131 -51.42232513 61.43505287 C-51.61535636 44.11006272 -49.04992703 28.56565985 -36.74940491 15.32121277 C-26.29003503 5.70609696 -14.15341599 -0.02946891 0 0 Z " fill="#D2DFEF" transform="translate(206.99940490722656,78.86628723144531)"/>
<path d="M0 0 C0.71406006 0.00209473 1.42812012 0.00418945 2.16381836 0.00634766 C35.32336842 0.20563711 62.39615149 13.58245115 85.9375 36.5 C109.24818608 61.17988937 118.70855994 92.97045121 118.25 126.19921875 C117.26214843 157.98745914 102.37478011 187.41886719 79.9375 209.5 C53.92095652 233.59585906 22.5167252 242.97822875 -12.37451172 241.73828125 C-27.52893183 240.75915282 -41.56940885 236.29219203 -55.0625 229.5 C-55.7225 229.17 -56.3825 228.84 -57.0625 228.5 C-56.70311381 223.3609569 -53.8420617 220.58808343 -50.41015625 217.0703125 C-49.83599472 216.47572235 -49.26183319 215.8811322 -48.67027283 215.26852417 C-47.45269793 214.01761122 -46.22936449 212.77228103 -45.00073242 211.53222656 C-43.13532274 209.63549606 -41.31367774 207.70261792 -39.49023438 205.765625 C-30.88992714 196.89230837 -30.88992714 196.89230837 -26.12841797 195.87011719 C-23.54956459 196.11216872 -21.49455193 196.63279044 -19.0625 197.5 C-6.26244007 200.48443703 9.56684974 199.7031553 21.9375 195.5 C23.15566406 195.0978125 24.37382812 194.695625 25.62890625 194.28125 C44.12675142 187.7601742 58.97703382 173.849422 67.9375 156.5 C69.89379015 152.24008882 71.5076421 147.9628898 72.9375 143.5 C73.2571875 142.5203125 73.576875 141.540625 73.90625 140.53125 C79.85476383 119.16066327 75.06589729 98.50960748 64.97216797 79.33105469 C62.72243551 75.34969711 59.95144161 71.91580049 56.9375 68.5 C55.99003906 67.26830078 55.99003906 67.26830078 55.0234375 66.01171875 C44.44171961 53.27006219 27.09321781 45.23235011 10.9375 42.5 C-4.85544424 41.38513753 -18.03466915 41.8020602 -32.22265625 49.1328125 C-40.00792011 53.04909347 -45.47597577 54.0632469 -54.04296875 53.61328125 C-57.96078836 53.98255609 -59.8593887 55.80616359 -62.69496155 58.44276428 C-63.57659533 59.26131456 -64.4582291 60.07986485 -65.36657906 60.92321968 C-69.62413002 64.99261702 -73.81071581 69.12553029 -77.96264648 73.30249023 C-78.90482926 74.24659855 -79.84724468 75.19047475 -80.78987122 76.13414001 C-82.79700401 78.14440082 -84.80258151 80.15619515 -86.80691338 82.16924858 C-89.97719871 85.35319049 -93.15141548 88.53319408 -96.32618713 91.71266174 C-103.05378432 98.45129116 -109.77709873 105.19418612 -116.5 111.9375 C-123.78446335 119.24402327 -131.06968815 126.54977843 -138.35977417 133.85069233 C-141.51568464 137.01158067 -144.66914273 140.17488926 -147.82073486 143.340083 C-149.30557897 144.83058518 -150.79155857 146.31994386 -152.27806091 147.80879211 C-154.08996582 149.62357071 -155.90006484 151.44015479 -157.70803833 153.2588501 C-158.50546951 154.05635178 -159.3029007 154.85385345 -160.12449646 155.67552185 C-160.81667991 156.36992591 -161.50886335 157.06432997 -162.22202206 157.77977657 C-165.77720203 161.10266555 -167.8673748 161.74758298 -172.62190247 161.72463989 C-174.3568119 161.7240432 -174.3568119 161.7240432 -176.12677002 161.72343445 C-177.39695984 161.71302628 -178.66714966 161.7026181 -179.97583008 161.69189453 C-181.32612373 161.68809629 -182.67642047 161.68528752 -184.02671814 161.68339539 C-186.93563209 161.67794867 -189.84445499 161.66695416 -192.75333595 161.65213394 C-197.35493884 161.63021555 -201.95638497 161.62974717 -206.55802917 161.63400269 C-208.13372896 161.63519607 -209.70942877 161.63636507 -211.28512859 161.6375103 C-212.07424456 161.63809055 -212.86336053 161.6386708 -213.6763891 161.63926864 C-224.38929376 161.64529417 -235.10191996 161.6329241 -245.81469727 161.57910156 C-253.04111182 161.54296717 -260.26696099 161.53522102 -267.49343222 161.55959976 C-271.31701778 161.57128655 -275.1393382 161.56820721 -278.96277809 161.53009415 C-282.56092373 161.49434034 -286.15715148 161.49573981 -289.75533485 161.52532387 C-291.7008709 161.53154602 -293.64640786 161.49809981 -295.59164429 161.46339417 C-301.84593697 161.397896 -301.84593697 161.397896 -307.12903404 164.27456284 C-308.63131752 166.28466292 -309.83092252 168.31911761 -311.0625 170.5 C-313.4765625 172.5234375 -313.4765625 172.5234375 -315.6875 173.875 C-316.78964844 174.56722656 -316.78964844 174.56722656 -317.9140625 175.2734375 C-322.05451829 177.63726135 -325.26974653 178.96747184 -330.0625 179.5 C-330.76117188 179.60054687 -331.45984375 179.70109375 -332.1796875 179.8046875 C-340.52921899 180.48907533 -347.23367872 176.88403696 -354.0625 172.5 C-360.77782465 166.66885976 -364.69010862 159.61772153 -365.3359375 150.7421875 C-365.69729045 139.75051064 -364.47191725 132.1305194 -356.875 123.6875 C-349.87363441 117.17853814 -341.44839488 114.16492883 -332.0390625 114.2890625 C-322.72540073 114.94908578 -315.36732075 118.56049414 -309.234375 125.59765625 C-305.0625 130.96845794 -305.0625 130.96845794 -305.0625 133.5 C-286.02167625 136.63603205 -266.94707158 138.59433982 -247.6875 139.625 C-246.97119573 139.66435889 -246.25489145 139.70371778 -245.51688099 139.74426937 C-208.37892199 141.71103991 -177.86887775 137.92282523 -149.22076797 112.63614273 C-137.83537424 102.38683499 -127.22919204 91.46361 -116.9375 80.125 C-116.37208779 79.50281743 -115.80667559 78.88063486 -115.22412968 78.23959827 C-105.05519715 67.0242022 -95.05494557 55.6588984 -85.54083252 43.88049316 C-85.10109698 43.33642673 -84.66136145 42.79236029 -84.20830059 42.23180699 C-83.56032245 41.43007971 -83.56032245 41.43007971 -82.89925385 40.61215591 C-61.20099236 13.78334339 -34.87374347 -0.23693067 0 0 Z " fill="#112D4D" transform="translate(366.0625,154.5)"/>
<path d="M0 0 C0.85078125 -0.00322266 1.7015625 -0.00644531 2.578125 -0.00976562 C14.92702563 0.09440455 25.21355356 4.53709642 34.3125 13 C44.1793203 23.64794358 48.62453823 35.94864603 48.21875 50.3203125 C47.93215429 54.24053235 47.32425526 57.61706515 46 61.3125 C45.68160156 62.23675781 45.36320312 63.16101563 45.03515625 64.11328125 C40.74270126 75.48756435 33.93354719 84.636851 23 90.3125 C9.56447042 96.02197325 -2.03083727 96.67536171 -16 92.3125 C-17.28777344 91.73628906 -17.28777344 91.73628906 -18.6015625 91.1484375 C-21.45955436 90.15232959 -22.20878871 90.21703448 -25 91.3125 C-26.91193216 92.89805456 -28.65493587 94.48097307 -30.4163208 96.22001648 C-30.95060031 96.73621026 -31.48487981 97.25240405 -32.03534961 97.78424007 C-33.82669053 99.51905096 -35.60717586 101.26458714 -37.38769531 103.01049805 C-38.66857848 104.25621448 -39.94995257 105.5014263 -41.23178101 106.74617004 C-45.44317905 110.84269767 -49.63752885 114.95642557 -53.828125 119.07421875 C-54.54212935 119.77573696 -55.25613371 120.47725518 -55.99177456 121.20003152 C-62.73099307 127.82430324 -69.46228007 134.45656518 -76.17821121 141.10444927 C-84.75338674 149.59138585 -93.36277388 158.04001661 -102.02270055 166.44047898 C-108.1165933 172.35792439 -114.16729922 178.31745072 -120.18839717 184.30893928 C-123.78127563 187.88181554 -127.39008949 191.43390626 -131.04679108 194.94153404 C-148.71454049 210.24987915 -148.71454049 210.24987915 -156.80881882 230.96075916 C-156.60270522 234.48196022 -156.05335902 237.82091672 -155.29120636 241.26076698 C-154.72950756 245.21829033 -156.37305625 248.18010689 -158.45703125 251.4140625 C-158.96621094 252.04054688 -159.47539062 252.66703125 -160 253.3125 C-160.51949219 253.95960938 -161.03898437 254.60671875 -161.57421875 255.2734375 C-167.65532381 261.99242071 -175.01054584 265.83924002 -184.015625 266.55078125 C-194.58823935 266.79338955 -201.38525958 264.5334756 -209.14453125 257.30078125 C-216.61550946 249.29503828 -219.5595473 241.29955171 -219.30078125 230.36328125 C-218.24430489 219.64759245 -211.94955328 212.30787964 -203.9296875 205.57421875 C-198.80635326 202.31474983 -194.60976949 202.28755733 -188.76586878 202.76144832 C-181.4630954 203.25649652 -175.19478502 203.43777647 -169.17965627 198.8680228 C-166.11310839 196.16333106 -163.29288895 193.2736334 -160.48291016 190.30639648 C-159.18213753 189.01281468 -157.87679406 187.72381569 -156.56732178 186.43904114 C-153.05685222 182.96844168 -149.61477182 179.43674505 -146.18315554 175.88838077 C-142.57225405 172.17526357 -138.90437626 168.51921481 -135.24349976 164.85548401 C-129.11445955 158.70524702 -123.02642164 152.51676452 -116.96435547 146.30053711 C-109.9560895 139.11449523 -102.89854832 131.98010492 -95.80984271 124.87345451 C-88.24985543 117.29413259 -80.72082482 109.68469233 -73.20383787 102.06274152 C-71.03896779 99.87099787 -68.86906848 97.68433409 -66.69826126 95.49847221 C-63.29497574 92.06771665 -59.91341853 88.61687114 -56.54772186 85.14924431 C-55.30935344 83.87949808 -54.06413199 82.61639482 -52.81172562 81.36049271 C-51.10501033 79.64651327 -49.42496865 77.9101269 -47.74966431 76.16551208 C-47.2474708 75.6722968 -46.7452773 75.17908152 -46.22786582 74.67092031 C-44.66085204 73.08917034 -44.66085204 73.08917034 -43 70.3125 C-43.14365563 66.48097876 -43.95156043 63.47206566 -45.0625 59.8125 C-48.51311389 46.34987761 -45.62213507 32.74720858 -38.7890625 20.94921875 C-29.78371997 7.67715279 -15.95480326 -0.3021743 0 0 Z " fill="#102C4C" transform="translate(363,227.6875)"/>
<path d="M0 0 C1.6940918 1.54370117 1.6940918 1.54370117 3.19921875 3.54296875 C3.76318359 4.2795874 4.32714844 5.01620605 4.90820312 5.77514648 C5.49537109 6.57122314 6.08253906 7.3672998 6.6875 8.1875 C7.30689453 9.00613525 7.92628906 9.82477051 8.56445312 10.66821289 C12.94336758 16.48502218 17.20236261 22.38636719 21.3984375 28.3359375 C29.36102818 39.60024154 37.67602584 50.61212353 46.0625 61.5625 C52.16028209 69.52627805 58.10212951 77.58463409 63.9375 85.7421875 C66.0144946 88.6433229 68.1192631 91.52091528 70.25 94.3828125 C71.02380005 95.42429443 71.02380005 95.42429443 71.81323242 96.48681641 C72.78870697 97.79666221 73.76785081 99.10378606 74.7512207 100.40771484 C78 104.77888849 78 104.77888849 78 107 C68.75838188 107.09338604 59.51693044 107.16410821 50.27494049 107.20724869 C45.98178741 107.22797188 41.68896116 107.25600356 37.39599609 107.30175781 C33.23973968 107.34576913 29.08379416 107.3692513 24.92732239 107.37950897 C23.35515967 107.38680266 21.78301064 107.40103956 20.21098328 107.42292023 C-2.70608859 107.72871038 -21.69782478 100.88018688 -38.40625 84.765625 C-42.08229821 81.05358061 -45.076974 77.0251291 -48.0625 72.75 C-49.19961438 71.14909535 -50.33766653 69.54885645 -51.4765625 67.94921875 C-52.05696289 67.13114746 -52.63736328 66.31307617 -53.23535156 65.47021484 C-56.09337769 61.46945275 -59.01429333 57.51576168 -61.9375 53.5625 C-62.79674072 52.39883911 -62.79674072 52.39883911 -63.67333984 51.21166992 C-64.84380478 49.62659041 -66.0145427 48.04171243 -67.18554688 46.45703125 C-70.95272413 41.35572986 -74.7105894 36.24755768 -78.47045898 31.14086914 C-79.02032471 30.39442139 -79.57019043 29.64797363 -80.13671875 28.87890625 C-80.61842529 28.2247876 -81.10013184 27.57066895 -81.59643555 26.89672852 C-82.59996198 25.54059756 -83.63077609 24.20449018 -84.67895508 22.88256836 C-86 21 -86 21 -86 19 C-79.64116793 17.64201815 -73.28027654 16.57012315 -66.84326172 15.65722656 C-49.90144385 13.2315637 -14.67795769 -4.46865669 0 0 Z " fill="#FBFCFA" transform="translate(480,493)"/>
<path d="M0 0 C1.40356445 1.44262695 1.40356445 1.44262695 2.86328125 3.48828125 C3.41322754 4.24778076 3.96317383 5.00728027 4.52978516 5.78979492 C5.11808105 6.6222876 5.70637695 7.45478027 6.3125 8.3125 C7.57658572 10.06527525 8.84091544 11.81787456 10.10546875 13.5703125 C10.75177246 14.47297852 11.39807617 15.37564453 12.06396484 16.30566406 C15.04861596 20.4593349 18.08662393 24.57305895 21.125 28.6875 C21.69951904 29.46875244 22.27403809 30.25000488 22.8659668 31.05493164 C25.68865493 34.88991065 28.52859868 38.70995891 31.40625 42.50390625 C31.94878418 43.2203833 32.49131836 43.93686035 33.05029297 44.67504883 C34.06123157 46.00713676 35.07559224 47.33663845 36.09423828 48.6628418 C39.09525547 52.61737893 41.61965469 56.64162126 44 61 C39.96573413 61.10051836 35.93197455 61.17222514 31.89672852 61.21972656 C30.5303881 61.23957267 29.16412941 61.26665914 27.7980957 61.30175781 C11.27291088 61.71503937 -2.12413178 57.73132051 -14.25 46.3125 C-23.07448901 37.16164298 -30.26888141 26.51657052 -37.41796875 16.0390625 C-37.91449951 15.31154785 -38.41103027 14.5840332 -38.92260742 13.83447266 C-40 12 -40 12 -40 10 C-39.37657715 9.87471924 -38.7531543 9.74943848 -38.11083984 9.62036133 C-26.98001734 7.35912458 -16.13203268 5.11330564 -5.546875 0.91796875 C-3 0 -3 0 0 0 Z " fill="#D0DDED" transform="translate(472,517)"/>
<path d="M0 0 C0.33 0 0.66 0 1 0 C1 50.49 1 100.98 1 153 C33.01 153 65.02 153 98 153 C98 153.66 98 154.32 98 155 C85.2396613 155.02312121 72.47932755 155.04091395 59.71897221 155.05181217 C53.79449285 155.05704149 47.87002778 155.06414001 41.94555664 155.07543945 C36.23327429 155.08626661 30.52100572 155.09227647 24.80871391 155.09487724 C22.62411723 155.0967318 20.43952135 155.100353 18.2549305 155.10573006 C15.20647651 155.11293821 12.15808021 155.11399104 9.10961914 155.11352539 C8.19684204 155.11712067 7.28406494 155.12071594 6.34362793 155.12442017 C0.11405216 155.11405216 0.11405216 155.11405216 -1 154 C-1.09887812 152.02802462 -1.12632256 150.0524556 -1.12698364 148.07800293 C-1.12980347 146.79070786 -1.13262329 145.50341278 -1.13552856 144.17710876 C-1.13358396 142.737213 -1.13153578 141.29731736 -1.12939453 139.85742188 C-1.13074851 138.35152646 -1.13252843 136.84563139 -1.13470459 135.33973694 C-1.13927928 131.23861193 -1.13748922 127.13751196 -1.1343255 123.03638649 C-1.13180209 118.75403397 -1.13413939 114.47168366 -1.13571167 110.18933105 C-1.13753342 102.99649672 -1.13512692 95.80367263 -1.13037109 88.61083984 C-1.12492846 80.28283666 -1.12669112 71.95485796 -1.1321975 63.62685537 C-1.13672848 56.48972154 -1.13737925 49.3525951 -1.13475883 42.2154603 C-1.13319597 37.94701645 -1.13300253 33.67858412 -1.13629532 29.41014099 C-1.13917381 25.39816066 -1.13719875 21.38621204 -1.13140106 17.37423515 C-1.13007334 15.89755239 -1.13046778 14.42086698 -1.13266373 12.94418526 C-1.13537474 10.93679013 -1.13138084 8.92938921 -1.12698364 6.92199707 C-1.12660662 5.79594307 -1.12622959 4.66988907 -1.12584114 3.50971222 C-1 1 -1 1 0 0 Z " fill="#5E80A6" transform="translate(81,103)"/>
<path d="M0 0 C3.18718342 1.62929336 5.2152476 3.96555366 7.375 6.8125 C8.55042197 10.92647688 9.09742332 14.93212795 7.0546875 18.78125 C3.43859622 23.42076334 0.21259318 24.71839723 -5.4375 25.4375 C-10.22290615 24.84981854 -11.62045078 23.37954922 -15 20 C-17.69248399 15.96127401 -17.67205444 12.74486631 -17 8 C-12.95294229 0.32454572 -8.27672145 -1.27433192 0 0 Z " fill="#F5F7F7" transform="translate(37,289)"/>
<path d="M0 0 C3.14933291 1.67121049 5.26672972 4.00008598 7.375 6.875 C8.75017467 11.55059389 8.55896687 14.92347121 6.3125 19.25 C2.97439585 23.21963737 0.74207896 24.77828086 -4.4375 25.4375 C-8.7426591 24.90879625 -10.72712679 23.82657232 -14 21 C-16.910372 16.634442 -17.6506249 13.20499921 -17 8 C-13.09822294 0.61449342 -8.0963294 -1.38914491 0 0 Z " fill="#F6F8F6" transform="translate(181,449)"/>
<path d="M0 0 C3.18657224 1.41367932 5.16640625 3.02537732 7 6 C7.87022737 9.84022918 7.84371341 13.15641671 7 17 C4.55537702 20.3274035 1.94535422 22.68488193 -2 24 C-5.99090581 24.52055293 -7.69523363 24.16996586 -11.25 22.1875 C-14.08598033 19.93160655 -15.77416805 18.38114068 -16.37109375 14.73046875 C-16.48830187 10.24208714 -16.56577717 7.01154187 -13.625 3.4375 C-9.3505038 -0.53167505 -5.68496106 -0.92588942 0 0 Z " fill="#F8FBFA" transform="translate(255,157)"/>
<path d="M0 0 C2.95888673 0.30784377 5.91703167 0.62105574 8.875 0.9375 C9.71675781 1.02451172 10.55851562 1.11152344 11.42578125 1.20117188 C12.23144531 1.28818359 13.03710938 1.37519531 13.8671875 1.46484375 C14.61081543 1.543396 15.35444336 1.62194824 16.12060547 1.70288086 C18 2 18 2 20 3 C22.08354053 3.10404532 24.17046014 3.14227477 26.25657654 3.15148926 C26.90545352 3.15572167 27.55433049 3.15995408 28.22287041 3.16431475 C30.40696468 3.17737776 32.59102242 3.18337396 34.77514648 3.18945312 C36.33705876 3.19739264 37.89896882 3.20578036 39.46087646 3.21458435 C42.82921646 3.23266378 46.19755149 3.2476714 49.56591606 3.26036072 C54.88911456 3.28054962 60.2122579 3.30820655 65.53541565 3.33703613 C76.83608463 3.39717797 88.13678666 3.44899278 99.4375 3.5 C111.63263523 3.55505653 123.82775376 3.61152515 136.02283531 3.67754889 C141.31737322 3.70592876 146.61190461 3.72951399 151.90648067 3.74947357 C155.19748379 3.76284647 158.48845644 3.78025983 161.7794342 3.79878426 C163.30848483 3.80654999 164.83754516 3.81261533 166.36660957 3.81687737 C168.4499384 3.82291214 170.53314838 3.83495471 172.61643982 3.84851074 C173.78359748 3.85366447 174.95075514 3.85881821 176.15328121 3.86412811 C179 4 179 4 182 5 C182.33 4.34 182.66 3.68 183 3 C183.33 3.99 183.66 4.98 184 6 C163.50131799 6.09386296 143.0026802 6.16418323 122.5038271 6.20724869 C112.98367904 6.22778523 103.4636653 6.25573321 93.94360352 6.30175781 C85.63611173 6.34190077 77.32871732 6.36749734 69.02113122 6.37635398 C64.63119095 6.38152277 60.241529 6.39348004 55.85167885 6.42292023 C10.07688576 6.71792384 10.07688576 6.71792384 0 0 Z " fill="#55769D" transform="translate(459,637)"/>
<path d="M0 0 C-0.99 0.66 -1.98 1.32 -3 2 C-9.59412214 7.35628153 -15.52872462 13.40980995 -21.5 19.4375 C-22.87671875 20.82098633 -22.87671875 20.82098633 -24.28125 22.23242188 C-26.52315055 24.48599899 -28.762666 26.74189075 -31 29 C-31.99 28.67 -32.98 28.34 -34 28 C-30.14155881 23.99312795 -26.26372623 20.00646428 -22.36669922 16.03710938 C-21.04413887 14.68439504 -19.72701593 13.326342 -18.41552734 11.96289062 C-16.52809093 10.00258573 -14.62185789 8.06238552 -12.7109375 6.125 C-12.12943939 5.51253418 -11.54794128 4.90006836 -10.94882202 4.26904297 C-7.36131242 0.6786308 -5.3360659 -0.79157534 0 0 Z " fill="#2B3D54" transform="translate(343,351)"/>
<path d="M0 0 C0 0.66 0 1.32 0 2 C-0.99 2 -1.98 2 -3 2 C-3.2475 2.5775 -3.495 3.155 -3.75 3.75 C-5.18299988 6.32939979 -6.78424676 8.06121592 -9 10 C-9.66 10 -10.32 10 -11 10 C-11.1340625 10.58265625 -11.268125 11.1653125 -11.40625 11.765625 C-11.96214951 13.85756263 -12.69736135 15.74340337 -13.5 17.75 C-15.85110765 24.5739466 -15.74566401 31.8522817 -16 39 C-18.80588062 36.19411938 -18.29982542 34.35394546 -18.3125 30.4375 C-18.13766301 20.3586615 -15.50955172 12.7903663 -9 5 C-3.40559441 0 -3.40559441 0 0 0 Z " fill="#5B7CA4" transform="translate(237,140)"/>
<path d="M0 0 C0.99 0.33 1.98 0.66 3 1 C-1.62 5.62 -6.24 10.24 -11 15 C-11.99 14.67 -12.98 14.34 -14 14 C-9.33333333 9.33333333 -4.66666667 4.66666667 0 0 Z " fill="#4F74A3" transform="translate(120,28)"/>
<path d="M0 0 C0 0.66 0 1.32 0 2 C0.81984375 1.96519531 1.6396875 1.93039063 2.484375 1.89453125 C3.56203125 1.86746094 4.6396875 1.84039062 5.75 1.8125 C7.35101563 1.76029297 7.35101563 1.76029297 8.984375 1.70703125 C12.30027855 2.02917214 13.59016673 2.77148914 16 5 C14.82824219 4.86722656 13.65648437 4.73445313 12.44921875 4.59765625 C3.97315493 3.64303889 -4.4992642 2.71151533 -13 2 C-13 1.67 -13 1.34 -13 1 C-8.60563789 0.14256349 -4.47427924 -0.08948558 0 0 Z " fill="#6283A9" transform="translate(400,45)"/>
<path d="M0 0 C0.33 0.99 0.66 1.98 1 3 C0.29875 3.515625 -0.4025 4.03125 -1.125 4.5625 C-4.00434304 7.00368214 -6.17503788 9.53945344 -8.47265625 12.51171875 C-10.26440514 14.25764286 -11.56166134 14.60671957 -14 15 C-9.59156563 9.70987876 -4.92440206 4.81191572 0 0 Z " fill="#5777A0" transform="translate(299,389)"/>
<path d="M0 0 C2.93972221 0.25471599 5.87564064 0.52799875 8.8125 0.8125 C10.06256836 0.91788086 10.06256836 0.91788086 11.33789062 1.02539062 C12.14033203 1.10595703 12.94277344 1.18652344 13.76953125 1.26953125 C14.50792236 1.33760986 15.24631348 1.40568848 16.00708008 1.47583008 C18.41838529 2.11004205 19.4065212 3.12441153 21 5 C13.76410027 4.39700836 7.00629124 2.8849413 0 1 C0 0.67 0 0.34 0 0 Z " fill="#5E7DA3" transform="translate(459,637)"/>
<path d="M0 0 C0.66 0.33 1.32 0.66 2 1 C0.92492371 2.29854721 -0.16043736 3.58858361 -1.25 4.875 C-1.85328125 5.59429687 -2.4565625 6.31359375 -3.078125 7.0546875 C-4.97087634 8.97052118 -6.53657727 9.96449045 -9 11 C-7.59155282 7.78475695 -5.89655214 5.67816132 -3.375 3.25 C-2.74335938 2.63640625 -2.11171875 2.0228125 -1.4609375 1.390625 C-0.73777344 0.70226562 -0.73777344 0.70226562 0 0 Z " fill="#21364E" transform="translate(335,237)"/>
<path d="M0 0 C0.33 0 0.66 0 1 0 C1.27036084 5.27203646 0.26305335 9.92523206 -1 15 C-1.66 14.67 -2.32 14.34 -3 14 C-2.88512252 12.41590006 -2.75765492 10.83271037 -2.625 9.25 C-2.55539063 8.36828125 -2.48578125 7.4865625 -2.4140625 6.578125 C-2.00149945 4.00933618 -1.28839043 2.24158985 0 0 Z " fill="#577AA3" transform="translate(235,476)"/>
<path d="M0 0 C-4.38423952 3.44475962 -7.30835767 5.31620235 -13 5 C-4.82022472 -1.60674157 -4.82022472 -1.60674157 0 0 Z " fill="#5A7DA7" transform="translate(147,14)"/>
<path d="M0 0 C0.33 0.99 0.66 1.98 1 3 C-0.109375 5.04296875 -0.109375 5.04296875 -1.75 7.1875 C-2.28109375 7.90292969 -2.8121875 8.61835938 -3.359375 9.35546875 C-3.90078125 9.89816406 -4.4421875 10.44085938 -5 11 C-5.99 11 -6.98 11 -8 11 C-5.36 7.37 -2.72 3.74 0 0 Z " fill="#5779A1" transform="translate(548,379)"/>
<path d="M0 0 C0.33 0.99 0.66 1.98 1 3 C-0.14453125 5.26171875 -0.14453125 5.26171875 -1.8125 7.6875 C-2.35519531 8.49574219 -2.89789063 9.30398438 -3.45703125 10.13671875 C-3.96621094 10.75160156 -4.47539062 11.36648438 -5 12 C-5.66 12 -6.32 12 -7 12 C-5.44298069 7.32894208 -2.91552627 3.91294315 0 0 Z " fill="#5476A0" transform="translate(254,436)"/>
<path d="M0 0 C0.33 0 0.66 0 1 0 C1.625 2.875 1.625 2.875 2 6 C1.34 6.66 0.68 7.32 0 8 C-0.64767793 10.57061311 -0.64767793 10.57061311 -1 13 C-1.66 13 -2.32 13 -3 13 C-2.68817931 11.58318366 -2.37551263 10.16655349 -2.0625 8.75 C-1.88847656 7.96109375 -1.71445312 7.1721875 -1.53515625 6.359375 C-1.052444 4.23121297 -0.53836822 2.11467158 0 0 Z " fill="#6383A8" transform="translate(578,315)"/>
<path d="M0 0 C0 0.99 0 1.98 0 3 C-2.87501211 5.07639763 -5.51375944 6.3543999 -9 7 C-6.3765992 4.08511023 -3.28183606 2.11496102 0 0 Z " fill="#5679A1" transform="translate(498,430)"/>
<path d="M0 0 C0.33 0 0.66 0 1 0 C1 3.3 1 6.6 1 10 C0.01 10.33 -0.98 10.66 -2 11 C-1.34 7.37 -0.68 3.74 0 0 Z " fill="#5478A2" transform="translate(581,303)"/>
<path d="M0 0 C0.33 0 0.66 0 1 0 C0.67 2.97 0.34 5.94 0 9 C-0.99 9.33 -1.98 9.66 -3 10 C-2.01 6.7 -1.02 3.4 0 0 Z " fill="#5F80A7" transform="translate(574,328)"/>
</svg>
